<?xml version="1.0" encoding="UTF-8" standalone="no"?>
<svg width="24" height="24" viewBox="0 0 24 24" version="1.1" id="svg1"
    sodipodi:docname="gear.svg" inkscape:version="1.3 (0e150ed6c4, 2023-07-21)"
    xmlns:inkscape="http://www.inkscape.org/namespaces/inkscape"
    xmlns:sodipodi="http://sodipodi.sourceforge.net/DTD/sodipodi-0.dtd"
    xmlns:xlink="http://www.w3.org/1999/xlink"
    xmlns="http://www.w3.org/2000/svg" xmlns:svg="http://www.w3.org/2000/svg">
    <defs id="defs1">
        <linearGradient id="linearGradient12" inkscape:collect="always">
            <stop style="stop-color:#e3e3e3;stop-opacity:0;" offset="0"
                id="stop14" />
            <stop style="stop-color:#a0a0a0;stop-opacity:1;" offset="0.54000002"
                id="stop15" />
            <stop style="stop-color:#e3e3e3;stop-opacity:0;" offset="1"
                id="stop13" />
        </linearGradient>
        <radialGradient inkscape:collect="always" xlink:href="#linearGradient12"
            id="radialGradient13" cx="12" cy="12" fx="12" fy="12" r="12"
            gradientUnits="userSpaceOnUse" />
    </defs>
    <sodipodi:namedview id="namedview1" pagecolor="#ffffff"
        bordercolor="#cccccc" borderopacity="1" inkscape:showpageshadow="0"
        inkscape:pageopacity="1" inkscape:pagecheckerboard="0"
        inkscape:deskcolor="#d1d1d1" showgrid="false" inkscape:zoom="32.416667"
        inkscape:cx="12" inkscape:cy="12" inkscape:window-width="1920"
        inkscape:window-height="1040" inkscape:window-x="-11"
        inkscape:window-y="-11" inkscape:window-maximized="1"
        inkscape:current-layer="svg1" />
    <rect style="fill:url(#radialGradient13);fill-opacity:1" id="rect12"
        width="24" height="24" x="0" y="0" />
    <path fill="@android:color/white"
        d="M19.14,12.94c0.04,-0.3 0.06,-0.61 0.06,-0.94c0,-0.32 -0.02,-0.64 -0.07,-0.94l2.03,-1.58c0.18,-0.14 0.23,-0.41 0.12,-0.61l-1.92,-3.32c-0.12,-0.22 -0.37,-0.29 -0.59,-0.22l-2.39,0.96c-0.5,-0.38 -1.03,-0.7 -1.62,-0.94L14.4,2.81c-0.04,-0.24 -0.24,-0.41 -0.48,-0.41h-3.84c-0.24,0 -0.43,0.17 -0.47,0.41L9.25,5.35C8.66,5.59 8.12,5.92 7.63,6.29L5.24,5.33c-0.22,-0.08 -0.47,0 -0.59,0.22L2.74,8.87C2.62,9.08 2.66,9.34 2.86,9.48l2.03,1.58C4.84,11.36 4.8,11.69 4.8,12s0.02,0.64 0.07,0.94l-2.03,1.58c-0.18,0.14 -0.23,0.41 -0.12,0.61l1.92,3.32c0.12,0.22 0.37,0.29 0.59,0.22l2.39,-0.96c0.5,0.38 1.03,0.7 1.62,0.94l0.36,2.54c0.05,0.24 0.24,0.41 0.48,0.41h3.84c0.24,0 0.44,-0.17 0.47,-0.41l0.36,-2.54c0.59,-0.24 1.13,-0.56 1.62,-0.94l2.39,0.96c0.22,0.08 0.47,0 0.59,-0.22l1.92,-3.32c0.12,-0.22 0.07,-0.47 -0.12,-0.61L19.14,12.94zM12,15.6c-1.98,0 -3.6,-1.62 -3.6,-3.6s1.62,-3.6 3.6,-3.6s3.6,1.62 3.6,3.6S13.98,15.6 12,15.6z"
        id="path1" style="fill:#ffffff;fill-opacity:1" />
</svg>